<?xml version="1.0" encoding="utf-8" standalone="no"?>
<!DOCTYPE svg PUBLIC "-//W3C//DTD SVG 1.1//EN"
  "http://www.w3.org/Graphics/SVG/1.1/DTD/svg11.dtd">
<svg xmlns:xlink="http://www.w3.org/1999/xlink" width="720pt" height="360pt" viewBox="0 0 720 360" xmlns="http://www.w3.org/2000/svg" version="1.1">
 <metadata>
  <rdf:RDF xmlns:dc="http://purl.org/dc/elements/1.1/" xmlns:cc="http://creativecommons.org/ns#" xmlns:rdf="http://www.w3.org/1999/02/22-rdf-syntax-ns#">
   <cc:Work>
    <dc:type rdf:resource="http://purl.org/dc/dcmitype/StillImage"/>
    <dc:date>2022-06-23T17:01:39.531839</dc:date>
    <dc:format>image/svg+xml</dc:format>
    <dc:creator>
     <cc:Agent>
      <dc:title>Matplotlib v3.5.2, https://matplotlib.org/</dc:title>
     </cc:Agent>
    </dc:creator>
   </cc:Work>
  </rdf:RDF>
 </metadata>
 <defs>
  <style type="text/css">*{stroke-linejoin: round; stroke-linecap: butt}</style>
 </defs>
 <g id="figure_1">
  <g id="patch_1">
   <path d="M 0 360 
L 720 360 
L 720 0 
L 0 0 
L 0 360 
z
" style="fill: none"/>
  </g>
  <g id="axes_1">
   <g id="patch_2">
    <path d="M 52.675 313.2 
L 709.2 313.2 
L 709.2 28.8 
L 52.675 28.8 
z
" style="fill: #ffffff"/>
   </g>
   <g id="matplotlib.axis_1">
    <g id="xtick_1">
     <g id="line2d_1">
      <defs>
       <path id="m49189b77c3" d="M 0 0 
L 0 3.5 
" style="stroke: #000000; stroke-width: 0.8"/>
      </defs>
      <g>
       <use xlink:href="#m49189b77c3" x="82.517045" y="313.2" style="stroke: #000000; stroke-width: 0.8"/>
      </g>
     </g>
     <g id="text_1">
      <!-- 2 -->
      <g transform="translate(79.335795 327.798437)scale(0.1 -0.1)">
       <defs>
        <path id="DejaVuSans-32" d="M 1228 531 
L 3431 531 
L 3431 0 
L 469 0 
L 469 531 
Q 828 903 1448 1529 
Q 2069 2156 2228 2338 
Q 2531 2678 2651 2914 
Q 2772 3150 2772 3378 
Q 2772 3750 2511 3984 
Q 2250 4219 1831 4219 
Q 1534 4219 1204 4116 
Q 875 4013 500 3803 
L 500 4441 
Q 881 4594 1212 4672 
Q 1544 4750 1819 4750 
Q 2544 4750 2975 4387 
Q 3406 4025 3406 3419 
Q 3406 3131 3298 2873 
Q 3191 2616 2906 2266 
Q 2828 2175 2409 1742 
Q 1991 1309 1228 531 
z
" transform="scale(0.015625)"/>
       </defs>
       <use xlink:href="#DejaVuSans-32"/>
      </g>
     </g>
    </g>
    <g id="xtick_2">
     <g id="line2d_2">
      <g>
       <use xlink:href="#m49189b77c3" x="157.122159" y="313.2" style="stroke: #000000; stroke-width: 0.8"/>
      </g>
     </g>
     <g id="text_2">
      <!-- 4 -->
      <g transform="translate(153.940909 327.798437)scale(0.1 -0.1)">
       <defs>
        <path id="DejaVuSans-34" d="M 2419 4116 
L 825 1625 
L 2419 1625 
L 2419 4116 
z
M 2253 4666 
L 3047 4666 
L 3047 1625 
L 3713 1625 
L 3713 1100 
L 3047 1100 
L 3047 0 
L 2419 0 
L 2419 1100 
L 313 1100 
L 313 1709 
L 2253 4666 
z
" transform="scale(0.015625)"/>
       </defs>
       <use xlink:href="#DejaVuSans-34"/>
      </g>
     </g>
    </g>
    <g id="xtick_3">
     <g id="line2d_3">
      <g>
       <use xlink:href="#m49189b77c3" x="231.727273" y="313.2" style="stroke: #000000; stroke-width: 0.8"/>
      </g>
     </g>
     <g id="text_3">
      <!-- 8 -->
      <g transform="translate(228.546023 327.798437)scale(0.1 -0.1)">
       <defs>
        <path id="DejaVuSans-38" d="M 2034 2216 
Q 1584 2216 1326 1975 
Q 1069 1734 1069 1313 
Q 1069 891 1326 650 
Q 1584 409 2034 409 
Q 2484 409 2743 651 
Q 3003 894 3003 1313 
Q 3003 1734 2745 1975 
Q 2488 2216 2034 2216 
z
M 1403 2484 
Q 997 2584 770 2862 
Q 544 3141 544 3541 
Q 544 4100 942 4425 
Q 1341 4750 2034 4750 
Q 2731 4750 3128 4425 
Q 3525 4100 3525 3541 
Q 3525 3141 3298 2862 
Q 3072 2584 2669 2484 
Q 3125 2378 3379 2068 
Q 3634 1759 3634 1313 
Q 3634 634 3220 271 
Q 2806 -91 2034 -91 
Q 1263 -91 848 271 
Q 434 634 434 1313 
Q 434 1759 690 2068 
Q 947 2378 1403 2484 
z
M 1172 3481 
Q 1172 3119 1398 2916 
Q 1625 2713 2034 2713 
Q 2441 2713 2670 2916 
Q 2900 3119 2900 3481 
Q 2900 3844 2670 4047 
Q 2441 4250 2034 4250 
Q 1625 4250 1398 4047 
Q 1172 3844 1172 3481 
z
" transform="scale(0.015625)"/>
       </defs>
       <use xlink:href="#DejaVuSans-38"/>
      </g>
     </g>
    </g>
    <g id="xtick_4">
     <g id="line2d_4">
      <g>
       <use xlink:href="#m49189b77c3" x="306.332386" y="313.2" style="stroke: #000000; stroke-width: 0.8"/>
      </g>
     </g>
     <g id="text_4">
      <!-- 16 -->
      <g transform="translate(299.969886 327.798437)scale(0.1 -0.1)">
       <defs>
        <path id="DejaVuSans-31" d="M 794 531 
L 1825 531 
L 1825 4091 
L 703 3866 
L 703 4441 
L 1819 4666 
L 2450 4666 
L 2450 531 
L 3481 531 
L 3481 0 
L 794 0 
L 794 531 
z
" transform="scale(0.015625)"/>
        <path id="DejaVuSans-36" d="M 2113 2584 
Q 1688 2584 1439 2293 
Q 1191 2003 1191 1497 
Q 1191 994 1439 701 
Q 1688 409 2113 409 
Q 2538 409 2786 701 
Q 3034 994 3034 1497 
Q 3034 2003 2786 2293 
Q 2538 2584 2113 2584 
z
M 3366 4563 
L 3366 3988 
Q 3128 4100 2886 4159 
Q 2644 4219 2406 4219 
Q 1781 4219 1451 3797 
Q 1122 3375 1075 2522 
Q 1259 2794 1537 2939 
Q 1816 3084 2150 3084 
Q 2853 3084 3261 2657 
Q 3669 2231 3669 1497 
Q 3669 778 3244 343 
Q 2819 -91 2113 -91 
Q 1303 -91 875 529 
Q 447 1150 447 2328 
Q 447 3434 972 4092 
Q 1497 4750 2381 4750 
Q 2619 4750 2861 4703 
Q 3103 4656 3366 4563 
z
" transform="scale(0.015625)"/>
       </defs>
       <use xlink:href="#DejaVuSans-31"/>
       <use xlink:href="#DejaVuSans-36" x="63.623047"/>
      </g>
     </g>
    </g>
    <g id="xtick_5">
     <g id="line2d_5">
      <g>
       <use xlink:href="#m49189b77c3" x="380.9375" y="313.2" style="stroke: #000000; stroke-width: 0.8"/>
      </g>
     </g>
     <g id="text_5">
      <!-- 32 -->
      <g transform="translate(374.575 327.798437)scale(0.1 -0.1)">
       <defs>
        <path id="DejaVuSans-33" d="M 2597 2516 
Q 3050 2419 3304 2112 
Q 3559 1806 3559 1356 
Q 3559 666 3084 287 
Q 2609 -91 1734 -91 
Q 1441 -91 1130 -33 
Q 819 25 488 141 
L 488 750 
Q 750 597 1062 519 
Q 1375 441 1716 441 
Q 2309 441 2620 675 
Q 2931 909 2931 1356 
Q 2931 1769 2642 2001 
Q 2353 2234 1838 2234 
L 1294 2234 
L 1294 2753 
L 1863 2753 
Q 2328 2753 2575 2939 
Q 2822 3125 2822 3475 
Q 2822 3834 2567 4026 
Q 2313 4219 1838 4219 
Q 1578 4219 1281 4162 
Q 984 4106 628 3988 
L 628 4550 
Q 988 4650 1302 4700 
Q 1616 4750 1894 4750 
Q 2613 4750 3031 4423 
Q 3450 4097 3450 3541 
Q 3450 3153 3228 2886 
Q 3006 2619 2597 2516 
z
" transform="scale(0.015625)"/>
       </defs>
       <use xlink:href="#DejaVuSans-33"/>
       <use xlink:href="#DejaVuSans-32" x="63.623047"/>
      </g>
     </g>
    </g>
    <g id="xtick_6">
     <g id="line2d_6">
      <g>
       <use xlink:href="#m49189b77c3" x="455.542614" y="313.2" style="stroke: #000000; stroke-width: 0.8"/>
      </g>
     </g>
     <g id="text_6">
      <!-- 64 -->
      <g transform="translate(449.180114 327.798437)scale(0.1 -0.1)">
       <use xlink:href="#DejaVuSans-36"/>
       <use xlink:href="#DejaVuSans-34" x="63.623047"/>
      </g>
     </g>
    </g>
    <g id="xtick_7">
     <g id="line2d_7">
      <g>
       <use xlink:href="#m49189b77c3" x="530.147727" y="313.2" style="stroke: #000000; stroke-width: 0.8"/>
      </g>
     </g>
     <g id="text_7">
      <!-- 128 -->
      <g transform="translate(520.603977 327.798437)scale(0.1 -0.1)">
       <use xlink:href="#DejaVuSans-31"/>
       <use xlink:href="#DejaVuSans-32" x="63.623047"/>
       <use xlink:href="#DejaVuSans-38" x="127.246094"/>
      </g>
     </g>
    </g>
    <g id="xtick_8">
     <g id="line2d_8">
      <g>
       <use xlink:href="#m49189b77c3" x="604.752841" y="313.2" style="stroke: #000000; stroke-width: 0.8"/>
      </g>
     </g>
     <g id="text_8">
      <!-- 256 -->
      <g transform="translate(595.209091 327.798437)scale(0.1 -0.1)">
       <defs>
        <path id="DejaVuSans-35" d="M 691 4666 
L 3169 4666 
L 3169 4134 
L 1269 4134 
L 1269 2991 
Q 1406 3038 1543 3061 
Q 1681 3084 1819 3084 
Q 2600 3084 3056 2656 
Q 3513 2228 3513 1497 
Q 3513 744 3044 326 
Q 2575 -91 1722 -91 
Q 1428 -91 1123 -41 
Q 819 9 494 109 
L 494 744 
Q 775 591 1075 516 
Q 1375 441 1709 441 
Q 2250 441 2565 725 
Q 2881 1009 2881 1497 
Q 2881 1984 2565 2268 
Q 2250 2553 1709 2553 
Q 1456 2553 1204 2497 
Q 953 2441 691 2322 
L 691 4666 
z
" transform="scale(0.015625)"/>
       </defs>
       <use xlink:href="#DejaVuSans-32"/>
       <use xlink:href="#DejaVuSans-35" x="63.623047"/>
       <use xlink:href="#DejaVuSans-36" x="127.246094"/>
      </g>
     </g>
    </g>
    <g id="xtick_9">
     <g id="line2d_9">
      <g>
       <use xlink:href="#m49189b77c3" x="679.357955" y="313.2" style="stroke: #000000; stroke-width: 0.8"/>
      </g>
     </g>
     <g id="text_9">
      <!-- 512 -->
      <g transform="translate(669.814205 327.798437)scale(0.1 -0.1)">
       <use xlink:href="#DejaVuSans-35"/>
       <use xlink:href="#DejaVuSans-31" x="63.623047"/>
       <use xlink:href="#DejaVuSans-32" x="127.246094"/>
      </g>
     </g>
    </g>
    <g id="xtick_10">
     <g id="line2d_10">
      <defs>
       <path id="m0a1c8659d4" d="M 0 0 
L 0 2 
" style="stroke: #000000; stroke-width: 0.6"/>
      </defs>
      <g>
       <use xlink:href="#m0a1c8659d4" x="126.158239" y="313.2" style="stroke: #000000; stroke-width: 0.6"/>
      </g>
     </g>
    </g>
    <g id="xtick_11">
     <g id="line2d_11">
      <g>
       <use xlink:href="#m0a1c8659d4" x="181.139641" y="313.2" style="stroke: #000000; stroke-width: 0.6"/>
      </g>
     </g>
    </g>
    <g id="xtick_12">
     <g id="line2d_12">
      <g>
       <use xlink:href="#m0a1c8659d4" x="200.763353" y="313.2" style="stroke: #000000; stroke-width: 0.6"/>
      </g>
     </g>
    </g>
    <g id="xtick_13">
     <g id="line2d_13">
      <g>
       <use xlink:href="#m0a1c8659d4" x="217.354965" y="313.2" style="stroke: #000000; stroke-width: 0.6"/>
      </g>
     </g>
    </g>
    <g id="xtick_14">
     <g id="line2d_14">
      <g>
       <use xlink:href="#m0a1c8659d4" x="244.404547" y="313.2" style="stroke: #000000; stroke-width: 0.6"/>
      </g>
     </g>
    </g>
    <g id="xtick_15">
     <g id="line2d_15">
      <g>
       <use xlink:href="#m0a1c8659d4" x="330.349868" y="313.2" style="stroke: #000000; stroke-width: 0.6"/>
      </g>
     </g>
    </g>
    <g id="xtick_16">
     <g id="line2d_16">
      <g>
       <use xlink:href="#m0a1c8659d4" x="373.991062" y="313.2" style="stroke: #000000; stroke-width: 0.6"/>
      </g>
     </g>
    </g>
    <g id="xtick_17">
     <g id="line2d_17">
      <g>
       <use xlink:href="#m0a1c8659d4" x="404.954982" y="313.2" style="stroke: #000000; stroke-width: 0.6"/>
      </g>
     </g>
    </g>
    <g id="xtick_18">
     <g id="line2d_18">
      <g>
       <use xlink:href="#m0a1c8659d4" x="428.972464" y="313.2" style="stroke: #000000; stroke-width: 0.6"/>
      </g>
     </g>
    </g>
    <g id="xtick_19">
     <g id="line2d_19">
      <g>
       <use xlink:href="#m0a1c8659d4" x="448.596176" y="313.2" style="stroke: #000000; stroke-width: 0.6"/>
      </g>
     </g>
    </g>
    <g id="xtick_20">
     <g id="line2d_20">
      <g>
       <use xlink:href="#m0a1c8659d4" x="465.187788" y="313.2" style="stroke: #000000; stroke-width: 0.6"/>
      </g>
     </g>
    </g>
    <g id="xtick_21">
     <g id="line2d_21">
      <g>
       <use xlink:href="#m0a1c8659d4" x="479.560096" y="313.2" style="stroke: #000000; stroke-width: 0.6"/>
      </g>
     </g>
    </g>
    <g id="xtick_22">
     <g id="line2d_22">
      <g>
       <use xlink:href="#m0a1c8659d4" x="492.23737" y="313.2" style="stroke: #000000; stroke-width: 0.6"/>
      </g>
     </g>
    </g>
    <g id="xtick_23">
     <g id="line2d_23">
      <g>
       <use xlink:href="#m0a1c8659d4" x="578.182691" y="313.2" style="stroke: #000000; stroke-width: 0.6"/>
      </g>
     </g>
    </g>
    <g id="xtick_24">
     <g id="line2d_24">
      <g>
       <use xlink:href="#m0a1c8659d4" x="621.823885" y="313.2" style="stroke: #000000; stroke-width: 0.6"/>
      </g>
     </g>
    </g>
    <g id="xtick_25">
     <g id="line2d_25">
      <g>
       <use xlink:href="#m0a1c8659d4" x="652.787805" y="313.2" style="stroke: #000000; stroke-width: 0.6"/>
      </g>
     </g>
    </g>
    <g id="xtick_26">
     <g id="line2d_26">
      <g>
       <use xlink:href="#m0a1c8659d4" x="676.805287" y="313.2" style="stroke: #000000; stroke-width: 0.6"/>
      </g>
     </g>
    </g>
    <g id="xtick_27">
     <g id="line2d_27">
      <g>
       <use xlink:href="#m0a1c8659d4" x="696.428999" y="313.2" style="stroke: #000000; stroke-width: 0.6"/>
      </g>
     </g>
    </g>
    <g id="text_10">
     <!-- period trading days -->
     <g transform="translate(307.594531 345.275781)scale(0.15 -0.15)">
      <defs>
       <path id="DejaVuSans-70" d="M 1159 525 
L 1159 -1331 
L 581 -1331 
L 581 3500 
L 1159 3500 
L 1159 2969 
Q 1341 3281 1617 3432 
Q 1894 3584 2278 3584 
Q 2916 3584 3314 3078 
Q 3713 2572 3713 1747 
Q 3713 922 3314 415 
Q 2916 -91 2278 -91 
Q 1894 -91 1617 61 
Q 1341 213 1159 525 
z
M 3116 1747 
Q 3116 2381 2855 2742 
Q 2594 3103 2138 3103 
Q 1681 3103 1420 2742 
Q 1159 2381 1159 1747 
Q 1159 1113 1420 752 
Q 1681 391 2138 391 
Q 2594 391 2855 752 
Q 3116 1113 3116 1747 
z
" transform="scale(0.015625)"/>
       <path id="DejaVuSans-65" d="M 3597 1894 
L 3597 1613 
L 953 1613 
Q 991 1019 1311 708 
Q 1631 397 2203 397 
Q 2534 397 2845 478 
Q 3156 559 3463 722 
L 3463 178 
Q 3153 47 2828 -22 
Q 2503 -91 2169 -91 
Q 1331 -91 842 396 
Q 353 884 353 1716 
Q 353 2575 817 3079 
Q 1281 3584 2069 3584 
Q 2775 3584 3186 3129 
Q 3597 2675 3597 1894 
z
M 3022 2063 
Q 3016 2534 2758 2815 
Q 2500 3097 2075 3097 
Q 1594 3097 1305 2825 
Q 1016 2553 972 2059 
L 3022 2063 
z
" transform="scale(0.015625)"/>
       <path id="DejaVuSans-72" d="M 2631 2963 
Q 2534 3019 2420 3045 
Q 2306 3072 2169 3072 
Q 1681 3072 1420 2755 
Q 1159 2438 1159 1844 
L 1159 0 
L 581 0 
L 581 3500 
L 1159 3500 
L 1159 2956 
Q 1341 3275 1631 3429 
Q 1922 3584 2338 3584 
Q 2397 3584 2469 3576 
Q 2541 3569 2628 3553 
L 2631 2963 
z
" transform="scale(0.015625)"/>
       <path id="DejaVuSans-69" d="M 603 3500 
L 1178 3500 
L 1178 0 
L 603 0 
L 603 3500 
z
M 603 4863 
L 1178 4863 
L 1178 4134 
L 603 4134 
L 603 4863 
z
" transform="scale(0.015625)"/>
       <path id="DejaVuSans-6f" d="M 1959 3097 
Q 1497 3097 1228 2736 
Q 959 2375 959 1747 
Q 959 1119 1226 758 
Q 1494 397 1959 397 
Q 2419 397 2687 759 
Q 2956 1122 2956 1747 
Q 2956 2369 2687 2733 
Q 2419 3097 1959 3097 
z
M 1959 3584 
Q 2709 3584 3137 3096 
Q 3566 2609 3566 1747 
Q 3566 888 3137 398 
Q 2709 -91 1959 -91 
Q 1206 -91 779 398 
Q 353 888 353 1747 
Q 353 2609 779 3096 
Q 1206 3584 1959 3584 
z
" transform="scale(0.015625)"/>
       <path id="DejaVuSans-64" d="M 2906 2969 
L 2906 4863 
L 3481 4863 
L 3481 0 
L 2906 0 
L 2906 525 
Q 2725 213 2448 61 
Q 2172 -91 1784 -91 
Q 1150 -91 751 415 
Q 353 922 353 1747 
Q 353 2572 751 3078 
Q 1150 3584 1784 3584 
Q 2172 3584 2448 3432 
Q 2725 3281 2906 2969 
z
M 947 1747 
Q 947 1113 1208 752 
Q 1469 391 1925 391 
Q 2381 391 2643 752 
Q 2906 1113 2906 1747 
Q 2906 2381 2643 2742 
Q 2381 3103 1925 3103 
Q 1469 3103 1208 2742 
Q 947 2381 947 1747 
z
" transform="scale(0.015625)"/>
       <path id="DejaVuSans-20" transform="scale(0.015625)"/>
       <path id="DejaVuSans-74" d="M 1172 4494 
L 1172 3500 
L 2356 3500 
L 2356 3053 
L 1172 3053 
L 1172 1153 
Q 1172 725 1289 603 
Q 1406 481 1766 481 
L 2356 481 
L 2356 0 
L 1766 0 
Q 1100 0 847 248 
Q 594 497 594 1153 
L 594 3053 
L 172 3053 
L 172 3500 
L 594 3500 
L 594 4494 
L 1172 4494 
z
" transform="scale(0.015625)"/>
       <path id="DejaVuSans-61" d="M 2194 1759 
Q 1497 1759 1228 1600 
Q 959 1441 959 1056 
Q 959 750 1161 570 
Q 1363 391 1709 391 
Q 2188 391 2477 730 
Q 2766 1069 2766 1631 
L 2766 1759 
L 2194 1759 
z
M 3341 1997 
L 3341 0 
L 2766 0 
L 2766 531 
Q 2569 213 2275 61 
Q 1981 -91 1556 -91 
Q 1019 -91 701 211 
Q 384 513 384 1019 
Q 384 1609 779 1909 
Q 1175 2209 1959 2209 
L 2766 2209 
L 2766 2266 
Q 2766 2663 2505 2880 
Q 2244 3097 1772 3097 
Q 1472 3097 1187 3025 
Q 903 2953 641 2809 
L 641 3341 
Q 956 3463 1253 3523 
Q 1550 3584 1831 3584 
Q 2591 3584 2966 3190 
Q 3341 2797 3341 1997 
z
" transform="scale(0.015625)"/>
       <path id="DejaVuSans-6e" d="M 3513 2113 
L 3513 0 
L 2938 0 
L 2938 2094 
Q 2938 2591 2744 2837 
Q 2550 3084 2163 3084 
Q 1697 3084 1428 2787 
Q 1159 2491 1159 1978 
L 1159 0 
L 581 0 
L 581 3500 
L 1159 3500 
L 1159 2956 
Q 1366 3272 1645 3428 
Q 1925 3584 2291 3584 
Q 2894 3584 3203 3211 
Q 3513 2838 3513 2113 
z
" transform="scale(0.015625)"/>
       <path id="DejaVuSans-67" d="M 2906 1791 
Q 2906 2416 2648 2759 
Q 2391 3103 1925 3103 
Q 1463 3103 1205 2759 
Q 947 2416 947 1791 
Q 947 1169 1205 825 
Q 1463 481 1925 481 
Q 2391 481 2648 825 
Q 2906 1169 2906 1791 
z
M 3481 434 
Q 3481 -459 3084 -895 
Q 2688 -1331 1869 -1331 
Q 1566 -1331 1297 -1286 
Q 1028 -1241 775 -1147 
L 775 -588 
Q 1028 -725 1275 -790 
Q 1522 -856 1778 -856 
Q 2344 -856 2625 -561 
Q 2906 -266 2906 331 
L 2906 616 
Q 2728 306 2450 153 
Q 2172 0 1784 0 
Q 1141 0 747 490 
Q 353 981 353 1791 
Q 353 2603 747 3093 
Q 1141 3584 1784 3584 
Q 2172 3584 2450 3431 
Q 2728 3278 2906 2969 
L 2906 3500 
L 3481 3500 
L 3481 434 
z
" transform="scale(0.015625)"/>
       <path id="DejaVuSans-79" d="M 2059 -325 
Q 1816 -950 1584 -1140 
Q 1353 -1331 966 -1331 
L 506 -1331 
L 506 -850 
L 844 -850 
Q 1081 -850 1212 -737 
Q 1344 -625 1503 -206 
L 1606 56 
L 191 3500 
L 800 3500 
L 1894 763 
L 2988 3500 
L 3597 3500 
L 2059 -325 
z
" transform="scale(0.015625)"/>
       <path id="DejaVuSans-73" d="M 2834 3397 
L 2834 2853 
Q 2591 2978 2328 3040 
Q 2066 3103 1784 3103 
Q 1356 3103 1142 2972 
Q 928 2841 928 2578 
Q 928 2378 1081 2264 
Q 1234 2150 1697 2047 
L 1894 2003 
Q 2506 1872 2764 1633 
Q 3022 1394 3022 966 
Q 3022 478 2636 193 
Q 2250 -91 1575 -91 
Q 1294 -91 989 -36 
Q 684 19 347 128 
L 347 722 
Q 666 556 975 473 
Q 1284 391 1588 391 
Q 1994 391 2212 530 
Q 2431 669 2431 922 
Q 2431 1156 2273 1281 
Q 2116 1406 1581 1522 
L 1381 1569 
Q 847 1681 609 1914 
Q 372 2147 372 2553 
Q 372 3047 722 3315 
Q 1072 3584 1716 3584 
Q 2034 3584 2315 3537 
Q 2597 3491 2834 3397 
z
" transform="scale(0.015625)"/>
      </defs>
      <use xlink:href="#DejaVuSans-70"/>
      <use xlink:href="#DejaVuSans-65" x="63.476562"/>
      <use xlink:href="#DejaVuSans-72" x="125"/>
      <use xlink:href="#DejaVuSans-69" x="166.113281"/>
      <use xlink:href="#DejaVuSans-6f" x="193.896484"/>
      <use xlink:href="#DejaVuSans-64" x="255.078125"/>
      <use xlink:href="#DejaVuSans-20" x="318.554688"/>
      <use xlink:href="#DejaVuSans-74" x="350.341797"/>
      <use xlink:href="#DejaVuSans-72" x="389.550781"/>
      <use xlink:href="#DejaVuSans-61" x="430.664062"/>
      <use xlink:href="#DejaVuSans-64" x="491.943359"/>
      <use xlink:href="#DejaVuSans-69" x="555.419922"/>
      <use xlink:href="#DejaVuSans-6e" x="583.203125"/>
      <use xlink:href="#DejaVuSans-67" x="646.582031"/>
      <use xlink:href="#DejaVuSans-20" x="710.058594"/>
      <use xlink:href="#DejaVuSans-64" x="741.845703"/>
      <use xlink:href="#DejaVuSans-61" x="805.322266"/>
      <use xlink:href="#DejaVuSans-79" x="866.601562"/>
      <use xlink:href="#DejaVuSans-73" x="925.78125"/>
     </g>
    </g>
   </g>
   <g id="matplotlib.axis_2">
    <g id="ytick_1">
     <g id="line2d_28">
      <defs>
       <path id="m31c2f44916" d="M 0 0 
L -3.5 0 
" style="stroke: #000000; stroke-width: 0.8"/>
      </defs>
      <g>
       <use xlink:href="#m31c2f44916" x="52.675" y="300.272727" style="stroke: #000000; stroke-width: 0.8"/>
      </g>
     </g>
     <g id="text_11">
      <!-- 0.0 -->
      <g transform="translate(29.771875 304.071946)scale(0.1 -0.1)">
       <defs>
        <path id="DejaVuSans-30" d="M 2034 4250 
Q 1547 4250 1301 3770 
Q 1056 3291 1056 2328 
Q 1056 1369 1301 889 
Q 1547 409 2034 409 
Q 2525 409 2770 889 
Q 3016 1369 3016 2328 
Q 3016 3291 2770 3770 
Q 2525 4250 2034 4250 
z
M 2034 4750 
Q 2819 4750 3233 4129 
Q 3647 3509 3647 2328 
Q 3647 1150 3233 529 
Q 2819 -91 2034 -91 
Q 1250 -91 836 529 
Q 422 1150 422 2328 
Q 422 3509 836 4129 
Q 1250 4750 2034 4750 
z
" transform="scale(0.015625)"/>
        <path id="DejaVuSans-2e" d="M 684 794 
L 1344 794 
L 1344 0 
L 684 0 
L 684 794 
z
" transform="scale(0.015625)"/>
       </defs>
       <use xlink:href="#DejaVuSans-30"/>
       <use xlink:href="#DejaVuSans-2e" x="63.623047"/>
       <use xlink:href="#DejaVuSans-30" x="95.410156"/>
      </g>
     </g>
    </g>
    <g id="ytick_2">
     <g id="line2d_29">
      <g>
       <use xlink:href="#m31c2f44916" x="52.675" y="248.563636" style="stroke: #000000; stroke-width: 0.8"/>
      </g>
     </g>
     <g id="text_12">
      <!-- 0.2 -->
      <g transform="translate(29.771875 252.362855)scale(0.1 -0.1)">
       <use xlink:href="#DejaVuSans-30"/>
       <use xlink:href="#DejaVuSans-2e" x="63.623047"/>
       <use xlink:href="#DejaVuSans-32" x="95.410156"/>
      </g>
     </g>
    </g>
    <g id="ytick_3">
     <g id="line2d_30">
      <g>
       <use xlink:href="#m31c2f44916" x="52.675" y="196.854545" style="stroke: #000000; stroke-width: 0.8"/>
      </g>
     </g>
     <g id="text_13">
      <!-- 0.4 -->
      <g transform="translate(29.771875 200.653764)scale(0.1 -0.1)">
       <use xlink:href="#DejaVuSans-30"/>
       <use xlink:href="#DejaVuSans-2e" x="63.623047"/>
       <use xlink:href="#DejaVuSans-34" x="95.410156"/>
      </g>
     </g>
    </g>
    <g id="ytick_4">
     <g id="line2d_31">
      <g>
       <use xlink:href="#m31c2f44916" x="52.675" y="145.145455" style="stroke: #000000; stroke-width: 0.8"/>
      </g>
     </g>
     <g id="text_14">
      <!-- 0.6 -->
      <g transform="translate(29.771875 148.944673)scale(0.1 -0.1)">
       <use xlink:href="#DejaVuSans-30"/>
       <use xlink:href="#DejaVuSans-2e" x="63.623047"/>
       <use xlink:href="#DejaVuSans-36" x="95.410156"/>
      </g>
     </g>
    </g>
    <g id="ytick_5">
     <g id="line2d_32">
      <g>
       <use xlink:href="#m31c2f44916" x="52.675" y="93.436364" style="stroke: #000000; stroke-width: 0.8"/>
      </g>
     </g>
     <g id="text_15">
      <!-- 0.8 -->
      <g transform="translate(29.771875 97.235582)scale(0.1 -0.1)">
       <use xlink:href="#DejaVuSans-30"/>
       <use xlink:href="#DejaVuSans-2e" x="63.623047"/>
       <use xlink:href="#DejaVuSans-38" x="95.410156"/>
      </g>
     </g>
    </g>
    <g id="ytick_6">
     <g id="line2d_33">
      <g>
       <use xlink:href="#m31c2f44916" x="52.675" y="41.727273" style="stroke: #000000; stroke-width: 0.8"/>
      </g>
     </g>
     <g id="text_16">
      <!-- 1.0 -->
      <g transform="translate(29.771875 45.526491)scale(0.1 -0.1)">
       <use xlink:href="#DejaVuSans-31"/>
       <use xlink:href="#DejaVuSans-2e" x="63.623047"/>
       <use xlink:href="#DejaVuSans-30" x="95.410156"/>
      </g>
     </g>
    </g>
    <g id="text_17">
     <!-- ratio of dca wins to lump wins -->
     <g transform="translate(22.652344 283.491797)rotate(-90)scale(0.15 -0.15)">
      <defs>
       <path id="DejaVuSans-66" d="M 2375 4863 
L 2375 4384 
L 1825 4384 
Q 1516 4384 1395 4259 
Q 1275 4134 1275 3809 
L 1275 3500 
L 2222 3500 
L 2222 3053 
L 1275 3053 
L 1275 0 
L 697 0 
L 697 3053 
L 147 3053 
L 147 3500 
L 697 3500 
L 697 3744 
Q 697 4328 969 4595 
Q 1241 4863 1831 4863 
L 2375 4863 
z
" transform="scale(0.015625)"/>
       <path id="DejaVuSans-63" d="M 3122 3366 
L 3122 2828 
Q 2878 2963 2633 3030 
Q 2388 3097 2138 3097 
Q 1578 3097 1268 2742 
Q 959 2388 959 1747 
Q 959 1106 1268 751 
Q 1578 397 2138 397 
Q 2388 397 2633 464 
Q 2878 531 3122 666 
L 3122 134 
Q 2881 22 2623 -34 
Q 2366 -91 2075 -91 
Q 1284 -91 818 406 
Q 353 903 353 1747 
Q 353 2603 823 3093 
Q 1294 3584 2113 3584 
Q 2378 3584 2631 3529 
Q 2884 3475 3122 3366 
z
" transform="scale(0.015625)"/>
       <path id="DejaVuSans-77" d="M 269 3500 
L 844 3500 
L 1563 769 
L 2278 3500 
L 2956 3500 
L 3675 769 
L 4391 3500 
L 4966 3500 
L 4050 0 
L 3372 0 
L 2619 2869 
L 1863 0 
L 1184 0 
L 269 3500 
z
" transform="scale(0.015625)"/>
       <path id="DejaVuSans-6c" d="M 603 4863 
L 1178 4863 
L 1178 0 
L 603 0 
L 603 4863 
z
" transform="scale(0.015625)"/>
       <path id="DejaVuSans-75" d="M 544 1381 
L 544 3500 
L 1119 3500 
L 1119 1403 
Q 1119 906 1312 657 
Q 1506 409 1894 409 
Q 2359 409 2629 706 
Q 2900 1003 2900 1516 
L 2900 3500 
L 3475 3500 
L 3475 0 
L 2900 0 
L 2900 538 
Q 2691 219 2414 64 
Q 2138 -91 1772 -91 
Q 1169 -91 856 284 
Q 544 659 544 1381 
z
M 1991 3584 
L 1991 3584 
z
" transform="scale(0.015625)"/>
       <path id="DejaVuSans-6d" d="M 3328 2828 
Q 3544 3216 3844 3400 
Q 4144 3584 4550 3584 
Q 5097 3584 5394 3201 
Q 5691 2819 5691 2113 
L 5691 0 
L 5113 0 
L 5113 2094 
Q 5113 2597 4934 2840 
Q 4756 3084 4391 3084 
Q 3944 3084 3684 2787 
Q 3425 2491 3425 1978 
L 3425 0 
L 2847 0 
L 2847 2094 
Q 2847 2600 2669 2842 
Q 2491 3084 2119 3084 
Q 1678 3084 1418 2786 
Q 1159 2488 1159 1978 
L 1159 0 
L 581 0 
L 581 3500 
L 1159 3500 
L 1159 2956 
Q 1356 3278 1631 3431 
Q 1906 3584 2284 3584 
Q 2666 3584 2933 3390 
Q 3200 3197 3328 2828 
z
" transform="scale(0.015625)"/>
      </defs>
      <use xlink:href="#DejaVuSans-72"/>
      <use xlink:href="#DejaVuSans-61" x="41.113281"/>
      <use xlink:href="#DejaVuSans-74" x="102.392578"/>
      <use xlink:href="#DejaVuSans-69" x="141.601562"/>
      <use xlink:href="#DejaVuSans-6f" x="169.384766"/>
      <use xlink:href="#DejaVuSans-20" x="230.566406"/>
      <use xlink:href="#DejaVuSans-6f" x="262.353516"/>
      <use xlink:href="#DejaVuSans-66" x="323.535156"/>
      <use xlink:href="#DejaVuSans-20" x="358.740234"/>
      <use xlink:href="#DejaVuSans-64" x="390.527344"/>
      <use xlink:href="#DejaVuSans-63" x="454.003906"/>
      <use xlink:href="#DejaVuSans-61" x="508.984375"/>
      <use xlink:href="#DejaVuSans-20" x="570.263672"/>
      <use xlink:href="#DejaVuSans-77" x="602.050781"/>
      <use xlink:href="#DejaVuSans-69" x="683.837891"/>
      <use xlink:href="#DejaVuSans-6e" x="711.621094"/>
      <use xlink:href="#DejaVuSans-73" x="775"/>
      <use xlink:href="#DejaVuSans-20" x="827.099609"/>
      <use xlink:href="#DejaVuSans-74" x="858.886719"/>
      <use xlink:href="#DejaVuSans-6f" x="898.095703"/>
      <use xlink:href="#DejaVuSans-20" x="959.277344"/>
      <use xlink:href="#DejaVuSans-6c" x="991.064453"/>
      <use xlink:href="#DejaVuSans-75" x="1018.847656"/>
      <use xlink:href="#DejaVuSans-6d" x="1082.226562"/>
      <use xlink:href="#DejaVuSans-70" x="1179.638672"/>
      <use xlink:href="#DejaVuSans-20" x="1243.115234"/>
      <use xlink:href="#DejaVuSans-77" x="1274.902344"/>
      <use xlink:href="#DejaVuSans-69" x="1356.689453"/>
      <use xlink:href="#DejaVuSans-6e" x="1384.472656"/>
      <use xlink:href="#DejaVuSans-73" x="1447.851562"/>
     </g>
    </g>
   </g>
   <g id="line2d_34">
    <path d="M 82.517045 41.727273 
L 157.122159 63.677782 
L 231.727273 157.840036 
L 306.332386 187.650327 
L 380.9375 209.135455 
L 455.542614 270.850255 
L 530.147727 300.272727 
" clip-path="url(#pf6b3f7052b)" style="fill: none; stroke: #1f77b4; stroke-width: 1.5; stroke-linecap: square"/>
   </g>
   <g id="line2d_35">
    <path d="M 82.517045 41.727273 
L 157.122159 41.727273 
L 231.727273 104.657236 
L 306.332386 181.703782 
L 380.9375 212.289709 
L 455.542614 271.755164 
L 530.147727 299.471236 
L 604.752841 300.272727 
" clip-path="url(#pf6b3f7052b)" style="fill: none; stroke: #ff7f0e; stroke-width: 1.5; stroke-linecap: square"/>
   </g>
   <g id="line2d_36">
    <path d="M 82.517045 41.727273 
L 157.122159 41.727273 
L 231.727273 58.739564 
L 306.332386 175.602109 
L 380.9375 211.798473 
L 455.542614 266.791091 
L 530.147727 300.272727 
L 604.752841 300.272727 
L 679.357955 300.272727 
" clip-path="url(#pf6b3f7052b)" style="fill: none; stroke: #2ca02c; stroke-width: 1.5; stroke-linecap: square"/>
   </g>
   <g id="line2d_37">
    <path d="M 82.517045 41.727273 
L 157.122159 41.727273 
L 231.727273 41.727273 
L 306.332386 77.354836 
L 380.9375 202.801091 
L 455.542614 246.159164 
L 530.147727 300.272727 
L 604.752841 300.272727 
L 679.357955 300.272727 
" clip-path="url(#pf6b3f7052b)" style="fill: none; stroke: #d62728; stroke-width: 1.5; stroke-linecap: square"/>
   </g>
   <g id="line2d_38">
    <path d="M 82.517045 41.727273 
L 157.122159 41.727273 
L 231.727273 41.727273 
L 306.332386 41.727273 
L 380.9375 170.586327 
L 455.542614 256.113164 
L 530.147727 300.272727 
L 604.752841 300.272727 
L 679.357955 300.272727 
" clip-path="url(#pf6b3f7052b)" style="fill: none; stroke: #9467bd; stroke-width: 1.5; stroke-linecap: square"/>
   </g>
   <g id="line2d_39">
    <path d="M 82.517045 41.727273 
L 157.122159 41.727273 
L 231.727273 41.727273 
L 306.332386 41.727273 
L 380.9375 41.727273 
L 455.542614 272.427382 
L 530.147727 300.272727 
L 604.752841 300.272727 
L 679.357955 300.272727 
" clip-path="url(#pf6b3f7052b)" style="fill: none; stroke: #8c564b; stroke-width: 1.5; stroke-linecap: square"/>
   </g>
   <g id="LineCollection_1">
    <path d="M -1 171 
L 679.357955 171 
" clip-path="url(#pf6b3f7052b)" style="fill: none; stroke-dasharray: 14.8,6.4; stroke-dashoffset: 0; stroke: #000000; stroke-width: 4"/>
   </g>
   <g id="patch_3">
    <path d="M 52.675 313.2 
L 52.675 28.8 
" style="fill: none; stroke: #000000; stroke-width: 0.8; stroke-linejoin: miter; stroke-linecap: square"/>
   </g>
   <g id="patch_4">
    <path d="M 709.2 313.2 
L 709.2 28.8 
" style="fill: none; stroke: #000000; stroke-width: 0.8; stroke-linejoin: miter; stroke-linecap: square"/>
   </g>
   <g id="patch_5">
    <path d="M 52.675 313.2 
L 709.2 313.2 
" style="fill: none; stroke: #000000; stroke-width: 0.8; stroke-linejoin: miter; stroke-linecap: square"/>
   </g>
   <g id="patch_6">
    <path d="M 52.675 28.8 
L 709.2 28.8 
" style="fill: none; stroke: #000000; stroke-width: 0.8; stroke-linejoin: miter; stroke-linecap: square"/>
   </g>
   <g id="text_18">
    <!-- SP500, lump-sum investment vs. dollar cost averaging (inflation=0.04) -->
    <g transform="translate(113.808594 22.8)scale(0.15 -0.15)">
     <defs>
      <path id="DejaVuSans-53" d="M 3425 4513 
L 3425 3897 
Q 3066 4069 2747 4153 
Q 2428 4238 2131 4238 
Q 1616 4238 1336 4038 
Q 1056 3838 1056 3469 
Q 1056 3159 1242 3001 
Q 1428 2844 1947 2747 
L 2328 2669 
Q 3034 2534 3370 2195 
Q 3706 1856 3706 1288 
Q 3706 609 3251 259 
Q 2797 -91 1919 -91 
Q 1588 -91 1214 -16 
Q 841 59 441 206 
L 441 856 
Q 825 641 1194 531 
Q 1563 422 1919 422 
Q 2459 422 2753 634 
Q 3047 847 3047 1241 
Q 3047 1584 2836 1778 
Q 2625 1972 2144 2069 
L 1759 2144 
Q 1053 2284 737 2584 
Q 422 2884 422 3419 
Q 422 4038 858 4394 
Q 1294 4750 2059 4750 
Q 2388 4750 2728 4690 
Q 3069 4631 3425 4513 
z
" transform="scale(0.015625)"/>
      <path id="DejaVuSans-50" d="M 1259 4147 
L 1259 2394 
L 2053 2394 
Q 2494 2394 2734 2622 
Q 2975 2850 2975 3272 
Q 2975 3691 2734 3919 
Q 2494 4147 2053 4147 
L 1259 4147 
z
M 628 4666 
L 2053 4666 
Q 2838 4666 3239 4311 
Q 3641 3956 3641 3272 
Q 3641 2581 3239 2228 
Q 2838 1875 2053 1875 
L 1259 1875 
L 1259 0 
L 628 0 
L 628 4666 
z
" transform="scale(0.015625)"/>
      <path id="DejaVuSans-2c" d="M 750 794 
L 1409 794 
L 1409 256 
L 897 -744 
L 494 -744 
L 750 256 
L 750 794 
z
" transform="scale(0.015625)"/>
      <path id="DejaVuSans-2d" d="M 313 2009 
L 1997 2009 
L 1997 1497 
L 313 1497 
L 313 2009 
z
" transform="scale(0.015625)"/>
      <path id="DejaVuSans-76" d="M 191 3500 
L 800 3500 
L 1894 563 
L 2988 3500 
L 3597 3500 
L 2284 0 
L 1503 0 
L 191 3500 
z
" transform="scale(0.015625)"/>
      <path id="DejaVuSans-28" d="M 1984 4856 
Q 1566 4138 1362 3434 
Q 1159 2731 1159 2009 
Q 1159 1288 1364 580 
Q 1569 -128 1984 -844 
L 1484 -844 
Q 1016 -109 783 600 
Q 550 1309 550 2009 
Q 550 2706 781 3412 
Q 1013 4119 1484 4856 
L 1984 4856 
z
" transform="scale(0.015625)"/>
      <path id="DejaVuSans-3d" d="M 678 2906 
L 4684 2906 
L 4684 2381 
L 678 2381 
L 678 2906 
z
M 678 1631 
L 4684 1631 
L 4684 1100 
L 678 1100 
L 678 1631 
z
" transform="scale(0.015625)"/>
      <path id="DejaVuSans-29" d="M 513 4856 
L 1013 4856 
Q 1481 4119 1714 3412 
Q 1947 2706 1947 2009 
Q 1947 1309 1714 600 
Q 1481 -109 1013 -844 
L 513 -844 
Q 928 -128 1133 580 
Q 1338 1288 1338 2009 
Q 1338 2731 1133 3434 
Q 928 4138 513 4856 
z
" transform="scale(0.015625)"/>
     </defs>
     <use xlink:href="#DejaVuSans-53"/>
     <use xlink:href="#DejaVuSans-50" x="63.476562"/>
     <use xlink:href="#DejaVuSans-35" x="123.779297"/>
     <use xlink:href="#DejaVuSans-30" x="187.402344"/>
     <use xlink:href="#DejaVuSans-30" x="251.025391"/>
     <use xlink:href="#DejaVuSans-2c" x="314.648438"/>
     <use xlink:href="#DejaVuSans-20" x="346.435547"/>
     <use xlink:href="#DejaVuSans-6c" x="378.222656"/>
     <use xlink:href="#DejaVuSans-75" x="406.005859"/>
     <use xlink:href="#DejaVuSans-6d" x="469.384766"/>
     <use xlink:href="#DejaVuSans-70" x="566.796875"/>
     <use xlink:href="#DejaVuSans-2d" x="630.273438"/>
     <use xlink:href="#DejaVuSans-73" x="666.357422"/>
     <use xlink:href="#DejaVuSans-75" x="718.457031"/>
     <use xlink:href="#DejaVuSans-6d" x="781.835938"/>
     <use xlink:href="#DejaVuSans-20" x="879.248047"/>
     <use xlink:href="#DejaVuSans-69" x="911.035156"/>
     <use xlink:href="#DejaVuSans-6e" x="938.818359"/>
     <use xlink:href="#DejaVuSans-76" x="1002.197266"/>
     <use xlink:href="#DejaVuSans-65" x="1061.376953"/>
     <use xlink:href="#DejaVuSans-73" x="1122.900391"/>
     <use xlink:href="#DejaVuSans-74" x="1175"/>
     <use xlink:href="#DejaVuSans-6d" x="1214.208984"/>
     <use xlink:href="#DejaVuSans-65" x="1311.621094"/>
     <use xlink:href="#DejaVuSans-6e" x="1373.144531"/>
     <use xlink:href="#DejaVuSans-74" x="1436.523438"/>
     <use xlink:href="#DejaVuSans-20" x="1475.732422"/>
     <use xlink:href="#DejaVuSans-76" x="1507.519531"/>
     <use xlink:href="#DejaVuSans-73" x="1566.699219"/>
     <use xlink:href="#DejaVuSans-2e" x="1618.798828"/>
     <use xlink:href="#DejaVuSans-20" x="1650.585938"/>
     <use xlink:href="#DejaVuSans-64" x="1682.373047"/>
     <use xlink:href="#DejaVuSans-6f" x="1745.849609"/>
     <use xlink:href="#DejaVuSans-6c" x="1807.03125"/>
     <use xlink:href="#DejaVuSans-6c" x="1834.814453"/>
     <use xlink:href="#DejaVuSans-61" x="1862.597656"/>
     <use xlink:href="#DejaVuSans-72" x="1923.876953"/>
     <use xlink:href="#DejaVuSans-20" x="1964.990234"/>
     <use xlink:href="#DejaVuSans-63" x="1996.777344"/>
     <use xlink:href="#DejaVuSans-6f" x="2051.757812"/>
     <use xlink:href="#DejaVuSans-73" x="2112.939453"/>
     <use xlink:href="#DejaVuSans-74" x="2165.039062"/>
     <use xlink:href="#DejaVuSans-20" x="2204.248047"/>
     <use xlink:href="#DejaVuSans-61" x="2236.035156"/>
     <use xlink:href="#DejaVuSans-76" x="2297.314453"/>
     <use xlink:href="#DejaVuSans-65" x="2356.494141"/>
     <use xlink:href="#DejaVuSans-72" x="2418.017578"/>
     <use xlink:href="#DejaVuSans-61" x="2459.130859"/>
     <use xlink:href="#DejaVuSans-67" x="2520.410156"/>
     <use xlink:href="#DejaVuSans-69" x="2583.886719"/>
     <use xlink:href="#DejaVuSans-6e" x="2611.669922"/>
     <use xlink:href="#DejaVuSans-67" x="2675.048828"/>
     <use xlink:href="#DejaVuSans-20" x="2738.525391"/>
     <use xlink:href="#DejaVuSans-28" x="2770.3125"/>
     <use xlink:href="#DejaVuSans-69" x="2809.326172"/>
     <use xlink:href="#DejaVuSans-6e" x="2837.109375"/>
     <use xlink:href="#DejaVuSans-66" x="2900.488281"/>
     <use xlink:href="#DejaVuSans-6c" x="2935.693359"/>
     <use xlink:href="#DejaVuSans-61" x="2963.476562"/>
     <use xlink:href="#DejaVuSans-74" x="3024.755859"/>
     <use xlink:href="#DejaVuSans-69" x="3063.964844"/>
     <use xlink:href="#DejaVuSans-6f" x="3091.748047"/>
     <use xlink:href="#DejaVuSans-6e" x="3152.929688"/>
     <use xlink:href="#DejaVuSans-3d" x="3216.308594"/>
     <use xlink:href="#DejaVuSans-30" x="3300.097656"/>
     <use xlink:href="#DejaVuSans-2e" x="3363.720703"/>
     <use xlink:href="#DejaVuSans-30" x="3395.507812"/>
     <use xlink:href="#DejaVuSans-34" x="3459.130859"/>
     <use xlink:href="#DejaVuSans-29" x="3522.753906"/>
    </g>
   </g>
   <g id="legend_1">
    <g id="patch_7">
     <path d="M 532.690625 126.5375 
L 702.2 126.5375 
Q 704.2 126.5375 704.2 124.5375 
L 704.2 35.8 
Q 704.2 33.8 702.2 33.8 
L 532.690625 33.8 
Q 530.690625 33.8 530.690625 35.8 
L 530.690625 124.5375 
Q 530.690625 126.5375 532.690625 126.5375 
z
" style="fill: #ffffff; opacity: 0.8; stroke: #cccccc; stroke-linejoin: miter"/>
    </g>
    <g id="line2d_40">
     <path d="M 534.690625 41.898438 
L 544.690625 41.898438 
L 554.690625 41.898438 
" style="fill: none; stroke: #1f77b4; stroke-width: 1.5; stroke-linecap: square"/>
    </g>
    <g id="text_19">
     <!-- num_years_investment=1 -->
     <g transform="translate(562.690625 45.398438)scale(0.1 -0.1)">
      <defs>
       <path id="DejaVuSans-5f" d="M 3263 -1063 
L 3263 -1509 
L -63 -1509 
L -63 -1063 
L 3263 -1063 
z
" transform="scale(0.015625)"/>
      </defs>
      <use xlink:href="#DejaVuSans-6e"/>
      <use xlink:href="#DejaVuSans-75" x="63.378906"/>
      <use xlink:href="#DejaVuSans-6d" x="126.757812"/>
      <use xlink:href="#DejaVuSans-5f" x="224.169922"/>
      <use xlink:href="#DejaVuSans-79" x="274.169922"/>
      <use xlink:href="#DejaVuSans-65" x="333.349609"/>
      <use xlink:href="#DejaVuSans-61" x="394.873047"/>
      <use xlink:href="#DejaVuSans-72" x="456.152344"/>
      <use xlink:href="#DejaVuSans-73" x="497.265625"/>
      <use xlink:href="#DejaVuSans-5f" x="549.365234"/>
      <use xlink:href="#DejaVuSans-69" x="599.365234"/>
      <use xlink:href="#DejaVuSans-6e" x="627.148438"/>
      <use xlink:href="#DejaVuSans-76" x="690.527344"/>
      <use xlink:href="#DejaVuSans-65" x="749.707031"/>
      <use xlink:href="#DejaVuSans-73" x="811.230469"/>
      <use xlink:href="#DejaVuSans-74" x="863.330078"/>
      <use xlink:href="#DejaVuSans-6d" x="902.539062"/>
      <use xlink:href="#DejaVuSans-65" x="999.951172"/>
      <use xlink:href="#DejaVuSans-6e" x="1061.474609"/>
      <use xlink:href="#DejaVuSans-74" x="1124.853516"/>
      <use xlink:href="#DejaVuSans-3d" x="1164.0625"/>
      <use xlink:href="#DejaVuSans-31" x="1247.851562"/>
     </g>
    </g>
    <g id="line2d_41">
     <path d="M 534.690625 56.854688 
L 544.690625 56.854688 
L 554.690625 56.854688 
" style="fill: none; stroke: #ff7f0e; stroke-width: 1.5; stroke-linecap: square"/>
    </g>
    <g id="text_20">
     <!-- num_years_investment=2 -->
     <g transform="translate(562.690625 60.354688)scale(0.1 -0.1)">
      <use xlink:href="#DejaVuSans-6e"/>
      <use xlink:href="#DejaVuSans-75" x="63.378906"/>
      <use xlink:href="#DejaVuSans-6d" x="126.757812"/>
      <use xlink:href="#DejaVuSans-5f" x="224.169922"/>
      <use xlink:href="#DejaVuSans-79" x="274.169922"/>
      <use xlink:href="#DejaVuSans-65" x="333.349609"/>
      <use xlink:href="#DejaVuSans-61" x="394.873047"/>
      <use xlink:href="#DejaVuSans-72" x="456.152344"/>
      <use xlink:href="#DejaVuSans-73" x="497.265625"/>
      <use xlink:href="#DejaVuSans-5f" x="549.365234"/>
      <use xlink:href="#DejaVuSans-69" x="599.365234"/>
      <use xlink:href="#DejaVuSans-6e" x="627.148438"/>
      <use xlink:href="#DejaVuSans-76" x="690.527344"/>
      <use xlink:href="#DejaVuSans-65" x="749.707031"/>
      <use xlink:href="#DejaVuSans-73" x="811.230469"/>
      <use xlink:href="#DejaVuSans-74" x="863.330078"/>
      <use xlink:href="#DejaVuSans-6d" x="902.539062"/>
      <use xlink:href="#DejaVuSans-65" x="999.951172"/>
      <use xlink:href="#DejaVuSans-6e" x="1061.474609"/>
      <use xlink:href="#DejaVuSans-74" x="1124.853516"/>
      <use xlink:href="#DejaVuSans-3d" x="1164.0625"/>
      <use xlink:href="#DejaVuSans-32" x="1247.851562"/>
     </g>
    </g>
    <g id="line2d_42">
     <path d="M 534.690625 71.810938 
L 544.690625 71.810938 
L 554.690625 71.810938 
" style="fill: none; stroke: #2ca02c; stroke-width: 1.5; stroke-linecap: square"/>
    </g>
    <g id="text_21">
     <!-- num_years_investment=4 -->
     <g transform="translate(562.690625 75.310938)scale(0.1 -0.1)">
      <use xlink:href="#DejaVuSans-6e"/>
      <use xlink:href="#DejaVuSans-75" x="63.378906"/>
      <use xlink:href="#DejaVuSans-6d" x="126.757812"/>
      <use xlink:href="#DejaVuSans-5f" x="224.169922"/>
      <use xlink:href="#DejaVuSans-79" x="274.169922"/>
      <use xlink:href="#DejaVuSans-65" x="333.349609"/>
      <use xlink:href="#DejaVuSans-61" x="394.873047"/>
      <use xlink:href="#DejaVuSans-72" x="456.152344"/>
      <use xlink:href="#DejaVuSans-73" x="497.265625"/>
      <use xlink:href="#DejaVuSans-5f" x="549.365234"/>
      <use xlink:href="#DejaVuSans-69" x="599.365234"/>
      <use xlink:href="#DejaVuSans-6e" x="627.148438"/>
      <use xlink:href="#DejaVuSans-76" x="690.527344"/>
      <use xlink:href="#DejaVuSans-65" x="749.707031"/>
      <use xlink:href="#DejaVuSans-73" x="811.230469"/>
      <use xlink:href="#DejaVuSans-74" x="863.330078"/>
      <use xlink:href="#DejaVuSans-6d" x="902.539062"/>
      <use xlink:href="#DejaVuSans-65" x="999.951172"/>
      <use xlink:href="#DejaVuSans-6e" x="1061.474609"/>
      <use xlink:href="#DejaVuSans-74" x="1124.853516"/>
      <use xlink:href="#DejaVuSans-3d" x="1164.0625"/>
      <use xlink:href="#DejaVuSans-34" x="1247.851562"/>
     </g>
    </g>
    <g id="line2d_43">
     <path d="M 534.690625 86.767187 
L 544.690625 86.767187 
L 554.690625 86.767187 
" style="fill: none; stroke: #d62728; stroke-width: 1.5; stroke-linecap: square"/>
    </g>
    <g id="text_22">
     <!-- num_years_investment=8 -->
     <g transform="translate(562.690625 90.267187)scale(0.1 -0.1)">
      <use xlink:href="#DejaVuSans-6e"/>
      <use xlink:href="#DejaVuSans-75" x="63.378906"/>
      <use xlink:href="#DejaVuSans-6d" x="126.757812"/>
      <use xlink:href="#DejaVuSans-5f" x="224.169922"/>
      <use xlink:href="#DejaVuSans-79" x="274.169922"/>
      <use xlink:href="#DejaVuSans-65" x="333.349609"/>
      <use xlink:href="#DejaVuSans-61" x="394.873047"/>
      <use xlink:href="#DejaVuSans-72" x="456.152344"/>
      <use xlink:href="#DejaVuSans-73" x="497.265625"/>
      <use xlink:href="#DejaVuSans-5f" x="549.365234"/>
      <use xlink:href="#DejaVuSans-69" x="599.365234"/>
      <use xlink:href="#DejaVuSans-6e" x="627.148438"/>
      <use xlink:href="#DejaVuSans-76" x="690.527344"/>
      <use xlink:href="#DejaVuSans-65" x="749.707031"/>
      <use xlink:href="#DejaVuSans-73" x="811.230469"/>
      <use xlink:href="#DejaVuSans-74" x="863.330078"/>
      <use xlink:href="#DejaVuSans-6d" x="902.539062"/>
      <use xlink:href="#DejaVuSans-65" x="999.951172"/>
      <use xlink:href="#DejaVuSans-6e" x="1061.474609"/>
      <use xlink:href="#DejaVuSans-74" x="1124.853516"/>
      <use xlink:href="#DejaVuSans-3d" x="1164.0625"/>
      <use xlink:href="#DejaVuSans-38" x="1247.851562"/>
     </g>
    </g>
    <g id="line2d_44">
     <path d="M 534.690625 101.723437 
L 544.690625 101.723437 
L 554.690625 101.723437 
" style="fill: none; stroke: #9467bd; stroke-width: 1.5; stroke-linecap: square"/>
    </g>
    <g id="text_23">
     <!-- num_years_investment=16 -->
     <g transform="translate(562.690625 105.223437)scale(0.1 -0.1)">
      <use xlink:href="#DejaVuSans-6e"/>
      <use xlink:href="#DejaVuSans-75" x="63.378906"/>
      <use xlink:href="#DejaVuSans-6d" x="126.757812"/>
      <use xlink:href="#DejaVuSans-5f" x="224.169922"/>
      <use xlink:href="#DejaVuSans-79" x="274.169922"/>
      <use xlink:href="#DejaVuSans-65" x="333.349609"/>
      <use xlink:href="#DejaVuSans-61" x="394.873047"/>
      <use xlink:href="#DejaVuSans-72" x="456.152344"/>
      <use xlink:href="#DejaVuSans-73" x="497.265625"/>
      <use xlink:href="#DejaVuSans-5f" x="549.365234"/>
      <use xlink:href="#DejaVuSans-69" x="599.365234"/>
      <use xlink:href="#DejaVuSans-6e" x="627.148438"/>
      <use xlink:href="#DejaVuSans-76" x="690.527344"/>
      <use xlink:href="#DejaVuSans-65" x="749.707031"/>
      <use xlink:href="#DejaVuSans-73" x="811.230469"/>
      <use xlink:href="#DejaVuSans-74" x="863.330078"/>
      <use xlink:href="#DejaVuSans-6d" x="902.539062"/>
      <use xlink:href="#DejaVuSans-65" x="999.951172"/>
      <use xlink:href="#DejaVuSans-6e" x="1061.474609"/>
      <use xlink:href="#DejaVuSans-74" x="1124.853516"/>
      <use xlink:href="#DejaVuSans-3d" x="1164.0625"/>
      <use xlink:href="#DejaVuSans-31" x="1247.851562"/>
      <use xlink:href="#DejaVuSans-36" x="1311.474609"/>
     </g>
    </g>
    <g id="line2d_45">
     <path d="M 534.690625 116.679688 
L 544.690625 116.679688 
L 554.690625 116.679688 
" style="fill: none; stroke: #8c564b; stroke-width: 1.5; stroke-linecap: square"/>
    </g>
    <g id="text_24">
     <!-- num_years_investment=32 -->
     <g transform="translate(562.690625 120.179688)scale(0.1 -0.1)">
      <use xlink:href="#DejaVuSans-6e"/>
      <use xlink:href="#DejaVuSans-75" x="63.378906"/>
      <use xlink:href="#DejaVuSans-6d" x="126.757812"/>
      <use xlink:href="#DejaVuSans-5f" x="224.169922"/>
      <use xlink:href="#DejaVuSans-79" x="274.169922"/>
      <use xlink:href="#DejaVuSans-65" x="333.349609"/>
      <use xlink:href="#DejaVuSans-61" x="394.873047"/>
      <use xlink:href="#DejaVuSans-72" x="456.152344"/>
      <use xlink:href="#DejaVuSans-73" x="497.265625"/>
      <use xlink:href="#DejaVuSans-5f" x="549.365234"/>
      <use xlink:href="#DejaVuSans-69" x="599.365234"/>
      <use xlink:href="#DejaVuSans-6e" x="627.148438"/>
      <use xlink:href="#DejaVuSans-76" x="690.527344"/>
      <use xlink:href="#DejaVuSans-65" x="749.707031"/>
      <use xlink:href="#DejaVuSans-73" x="811.230469"/>
      <use xlink:href="#DejaVuSans-74" x="863.330078"/>
      <use xlink:href="#DejaVuSans-6d" x="902.539062"/>
      <use xlink:href="#DejaVuSans-65" x="999.951172"/>
      <use xlink:href="#DejaVuSans-6e" x="1061.474609"/>
      <use xlink:href="#DejaVuSans-74" x="1124.853516"/>
      <use xlink:href="#DejaVuSans-3d" x="1164.0625"/>
      <use xlink:href="#DejaVuSans-33" x="1247.851562"/>
      <use xlink:href="#DejaVuSans-32" x="1311.474609"/>
     </g>
    </g>
   </g>
  </g>
 </g>
 <defs>
  <clipPath id="pf6b3f7052b">
   <rect x="52.675" y="28.8" width="656.525" height="284.4"/>
  </clipPath>
 </defs>
</svg>
